<?xml version="1.0" standalone="no"?>
<!DOCTYPE svg PUBLIC "-//W3C//DTD SVG 20010904//EN"
 "http://www.w3.org/TR/2001/REC-SVG-20010904/DTD/svg10.dtd">
<svg version="1.0" xmlns="http://www.w3.org/2000/svg"
 width="360.000000pt" height="360.000000pt" viewBox="0 0 360.000000 360.000000"
 preserveAspectRatio="xMidYMid meet">
<metadata>
Created by potrace 1.14, written by Peter Selinger 2001-2017
</metadata>
<g transform="translate(0.000000,360.000000) scale(0.100000,-0.100000)"
fill="#000000" stroke="none">
<path d="M0 1800 l0 -1800 1800 0 1800 0 0 1800 0 1800 -1800 0 -1800 0 0
-1800z m1903 1173 c-7 -2 -19 -2 -25 0 -7 3 -2 5 12 5 14 0 19 -2 13 -5z m100
0 c-13 -2 -33 -2 -45 0 -13 2 -3 4 22 4 25 0 35 -2 23 -4z m-173 -18 c-46 -18
-64 -17 -25 0 17 8 37 14 45 14 8 0 -1 -7 -20 -14z m227 9 c-3 -3 -12 -4 -19
-1 -8 3 -5 6 6 6 11 1 17 -2 13 -5z m-312 -50 c-33 -28 -65 -47 -65 -40 0 6
82 65 90 65 3 0 -8 -11 -25 -25z m202 -50 c-3 -3 -12 -4 -19 -1 -8 3 -5 6 6 6
11 1 17 -2 13 -5z m-87 -8 c0 -2 -7 -7 -16 -10 -8 -3 -12 -2 -9 4 6 10 25 14
25 6z m-234 -80 c-17 -35 -33 -62 -35 -60 -7 7 53 124 64 124 1 0 -12 -29 -29
-64z m154 30 c0 -2 -8 -10 -17 -17 -16 -13 -17 -12 -4 4 13 16 21 21 21 13z
m-67 -91 c-3 -9 -8 -14 -10 -11 -3 3 -2 9 2 15 9 16 15 13 8 -4z m-127 -56
c-4 -40 -16 -67 -16 -37 0 23 12 78 17 78 2 0 2 -18 -1 -41z m61 -105 c-3 -3
-12 -4 -19 -1 -8 3 -5 6 6 6 11 1 17 -2 13 -5z m-228 -87 c-2 -1 -13 -9 -24
-17 -19 -14 -19 -14 -6 3 7 9 18 17 24 17 6 0 8 -1 6 -3z m-52 -79 c-3 -8 -6
-5 -6 6 -1 11 2 17 5 13 3 -3 4 -12 1 -19z m24 -35 c13 -16 12 -17 -3 -4 -10
7 -18 15 -18 17 0 8 8 3 21 -13z m112 -30 c-13 -2 -35 -2 -50 0 -16 2 -5 4 22
4 28 0 40 -2 28 -4z m-228 -38 c16 -15 25 -35 24 -52 -1 -26 -2 -26 -9 7 -13
53 -30 60 -154 60 -99 0 -112 -2 -133 -22 -27 -25 -29 -54 -7 -88 l16 -25 -21
24 c-28 31 -26 66 4 96 23 24 30 25 140 25 110 0 117 -1 140 -25z m-10 -115
c-3 -5 -12 -10 -18 -10 -7 0 -6 4 3 10 19 12 23 12 15 0z m178 -1102 c17 -26
1 -50 -30 -46 -34 4 -43 36 -17 55 21 15 34 13 47 -9z m-119 -126 l-1 -117
-32 -3 -31 -3 0 120 0 121 33 0 32 0 -1 -118z m-421 97 c61 -28 77 -127 29
-180 -23 -25 -38 -33 -79 -36 -45 -5 -54 -2 -83 24 -27 24 -33 38 -38 81 -4
49 -2 54 31 87 28 28 42 35 76 35 22 0 51 -5 64 -11z m271 -50 c24 -19 26 -26
26 -95 l0 -74 -30 0 c-29 0 -29 1 -32 63 -3 59 -4 62 -28 62 -24 0 -25 -3 -28
-62 l-3 -63 -34 0 -35 0 0 91 0 92 44 -5 c24 -3 50 -2 58 3 20 13 33 11 62
-12z m480 10 c31 -14 46 -56 46 -125 l0 -54 -35 0 -34 0 -3 62 c-2 52 -6 63
-22 66 -26 5 -36 -15 -36 -75 0 -52 0 -53 -30 -53 l-30 0 0 91 0 92 38 -5 c20
-3 46 -2 57 3 11 4 21 8 22 8 1 1 13 -4 27 -10z m221 -4 c21 -8 39 -25 45 -40
19 -50 15 -55 -50 -55 -33 0 -60 -4 -60 -9 0 -18 17 -21 64 -12 54 10 62 -5
20 -38 -51 -40 -133 -15 -148 45 -11 42 12 94 48 110 39 17 40 17 81 -1z
m-425 -85 l0 -90 -35 0 -35 0 0 90 0 90 35 0 35 0 0 -90z m-400 -230 c21 39
21 14 0 -31 -12 -28 -20 -37 -20 -24 0 11 -7 29 -15 39 -22 29 -18 45 5 18
l19 -23 11 21z m124 4 c9 -8 16 -22 16 -29 0 -19 -28 -45 -49 -45 -39 0 -57
60 -23 79 24 15 38 13 56 -5z m89 -52 c14 -3 17 4 17 32 0 20 5 36 11 36 16 0
6 -72 -12 -83 -30 -19 -49 -1 -48 45 l2 43 6 -35 c4 -22 12 -36 24 -38z m134
60 c6 -4 11 -24 10 -45 -1 -38 -10 -48 -21 -22 -3 8 -10 15 -16 15 -5 0 -10
-7 -10 -15 0 -8 -4 -15 -10 -15 -5 0 -10 20 -10 45 0 40 2 45 23 45 12 0 27
-4 34 -8z m163 -2 c0 -5 -9 -10 -20 -10 -27 0 -25 -18 3 -22 14 -2 22 -10 22
-23 0 -22 -26 -31 -53 -19 -14 6 -11 9 13 14 l30 7 -27 11 c-31 13 -34 22 -16
40 15 15 48 16 48 2z m81 -60 c10 0 19 -4 19 -10 0 -5 -11 -10 -25 -10 -26 0
-27 1 -27 50 0 46 5 50 9 8 3 -30 9 -38 24 -38z m120 60 c35 -19 18 -80 -22
-80 -21 0 -49 26 -49 45 0 16 27 45 41 45 6 0 19 -5 30 -10z m126 -5 c2 -6 -9
-11 -24 -10 -21 0 -28 -5 -28 -20 0 -27 41 -34 48 -8 4 15 5 14 6 -4 1 -27
-13 -37 -43 -29 -32 8 -40 33 -21 63 16 24 55 29 62 8z m106 -27 c9 -23 14
-44 11 -47 -4 -3 -9 0 -11 7 -3 6 -15 12 -28 12 -13 0 -25 -6 -28 -12 -2 -7
-7 -11 -9 -8 -8 7 29 90 40 90 5 0 16 -19 25 -42z m107 15 c0 15 5 27 10 27 6
0 10 -20 10 -45 0 -25 -3 -45 -6 -45 -3 0 -16 12 -28 27 l-21 27 -6 -29 c-5
-24 -7 -20 -7 20 l-1 50 24 -30 25 -30 0 28z m140 7 c0 -13 7 -20 20 -20 14 0
20 7 20 21 0 11 4 18 10 14 5 -3 7 -22 4 -42 -5 -42 -14 -57 -14 -25 0 15 -6
22 -20 22 -13 0 -20 -7 -20 -20 0 -11 -4 -20 -10 -20 -5 0 -10 20 -10 45 0 25
5 45 10 45 6 0 10 -9 10 -20z m160 10 c0 -5 -9 -10 -20 -10 -28 0 -25 -20 3
-21 l22 -2 -22 -4 c-28 -5 -30 -23 -3 -23 11 0 20 -4 20 -10 0 -5 -13 -10 -30
-10 -29 0 -30 2 -30 45 0 43 1 45 30 45 17 0 30 -4 30 -10z m97 2 c6 -4 11
-24 10 -45 -1 -38 -10 -48 -21 -22 -3 8 -10 15 -16 15 -5 0 -10 -7 -10 -15 0
-8 -4 -15 -10 -15 -5 0 -10 20 -10 45 0 40 2 45 23 45 12 0 27 -4 34 -8z m113
-2 c0 -5 -9 -10 -20 -10 -28 0 -25 -20 3 -21 l22 -2 -22 -4 c-28 -5 -30 -23
-3 -23 11 0 20 -4 20 -10 0 -5 -13 -10 -30 -10 -29 0 -30 2 -30 45 0 43 1 45
30 45 17 0 30 -4 30 -10z"/>
<path d="M800 964 c-7 -18 -7 -34 3 -52 29 -62 118 -11 89 52 -9 21 -19 26
-47 26 -29 0 -37 -5 -45 -26z"/>
<path d="M1823 953 c-22 -8 -14 -23 12 -23 14 0 25 4 25 9 0 11 -21 19 -37 14z"/>
<path d="M1117 667 c-8 -21 8 -39 29 -35 27 5 25 42 -2 46 -12 2 -24 -3 -27
-11z"/>
<path d="M1360 665 c0 -8 7 -15 15 -15 8 0 15 7 15 15 0 8 -7 15 -15 15 -8 0
-15 -7 -15 -15z"/>
<path d="M1714 665 c-8 -20 4 -35 27 -35 14 0 19 7 19 25 0 18 -5 25 -20 25
-11 0 -23 -7 -26 -15z"/>
<path d="M1960 656 c0 -9 5 -16 10 -16 6 0 10 4 10 9 0 6 -4 13 -10 16 -5 3
-10 -1 -10 -9z"/>
<path d="M2460 665 c0 -8 7 -15 15 -15 8 0 15 7 15 15 0 8 -7 15 -15 15 -8 0
-15 -7 -15 -15z"/>
</g>
</svg>
